<?xml version="1.0" standalone="no"?>
<!DOCTYPE svg PUBLIC "-//W3C//DTD SVG 20010904//EN"
 "http://www.w3.org/TR/2001/REC-SVG-20010904/DTD/svg10.dtd">
<svg version="1.0" xmlns="http://www.w3.org/2000/svg"
 width="32.000000pt" height="32.000000pt" viewBox="0 0 32.000000 32.000000"
 preserveAspectRatio="xMidYMid meet">

<g transform="translate(0.000000,32.000000) scale(0.100000,-0.100000)"
fill="#000000" stroke="none">
<path d="M78 248 c-13 -9 -19 -30 -20 -75 -2 -40 -6 -56 -11 -46 -5 8 -7 34
-5 58 1 24 0 41 -4 38 -5 -2 -8 -37 -8 -77 0 -65 2 -74 20 -79 17 -4 20 0 20
29 0 19 4 34 9 34 5 0 12 10 14 22 2 13 5 -3 6 -34 l1 -58 60 0 60 0 0 55 c0
52 1 55 25 55 25 0 25 1 38 -90 3 -14 5 19 6 73 l1 97 -32 0 c-18 0 -62 3 -98
6 -47 4 -70 2 -82 -8z m52 -13 c0 -8 -4 -15 -10 -15 -5 0 -10 7 -10 15 0 8 5
15 10 15 6 0 10 -7 10 -15z m-35 -5 c-3 -5 -10 -10 -16 -10 -5 0 -9 5 -9 10 0
6 7 10 16 10 8 0 12 -4 9 -10z m145 -5 c0 -8 -4 -15 -10 -15 -5 0 -10 7 -10
15 0 8 5 15 10 15 6 0 10 -7 10 -15z m-46 -30 c8 -30 1 -45 -20 -45 -9 0 -14
11 -14 35 0 42 24 49 34 10z m-64 0 c0 -8 -4 -15 -10 -15 -5 0 -10 7 -10 15 0
8 5 15 10 15 6 0 10 -7 10 -15z m-53 -47 c-3 -8 -6 -5 -6 6 -1 11 2 17 5 13 3
-3 4 -12 1 -19z m61 -25 c-5 -25 -28 -28 -28 -4 0 12 6 21 16 21 9 0 14 -7 12
-17z"/>
</g>
</svg>
