<svg version="1.1" id="Layer_1" xmlns="http://www.w3.org/2000/svg" xmlns:xlink="http://www.w3.org/1999/xlink" x="0px" y="0px"
	 width="100%" viewBox="0 0 256 256" enable-background="new 0 0 256 256" xml:space="preserve">
<path fill="#FEFEFE" opacity="1.000000" stroke="none" 
	d="
M143.000000,257.000000 
	C95.333336,257.000000 48.166672,257.000000 1.000006,257.000000 
	C1.000004,171.666672 1.000004,86.333351 1.000002,1.000018 
	C86.333321,1.000012 171.666641,1.000012 257.000000,1.000006 
	C257.000000,86.333313 257.000000,171.666626 257.000000,256.999969 
	C219.166672,257.000000 181.333328,257.000000 143.000000,257.000000 
M86.876030,210.950470 
	C116.469315,210.101105 146.062592,209.251740 176.084549,208.390076 
	C176.084549,179.023666 176.084549,150.152023 176.084549,120.725464 
	C190.761902,121.306358 204.971695,121.868744 219.926880,122.460632 
	C219.926880,150.834824 219.926880,178.711121 219.926880,206.532684 
	C225.096344,206.532684 229.490204,206.532684 233.921753,206.532684 
	C233.921753,157.352005 233.921753,108.628899 233.921753,59.722168 
	C232.348892,59.506954 231.056686,59.275681 229.754242,59.159893 
	C196.259232,56.182350 162.767944,53.161057 129.264999,50.275352 
	C114.856888,49.034336 100.424171,48.078876 85.276245,46.999535 
	C66.533745,57.106056 47.838295,67.301781 29.004450,77.235100 
	C25.697741,78.979126 24.774290,81.011902 24.787207,84.605339 
	C24.921831,122.057365 24.870184,159.510056 24.870188,196.962555 
	C24.870188,198.609070 24.870188,200.255569 24.870188,202.324417 
	C35.108383,203.767303 45.063812,205.170334 55.583817,206.652924 
	C55.583817,204.411621 55.583820,202.789230 55.583817,201.166840 
	C55.583775,187.018112 55.530975,172.868912 55.658520,158.721329 
	C55.672554,157.164551 56.383617,154.537079 57.342438,154.238205 
	C64.274071,152.077637 71.352722,150.388733 78.767899,148.450302 
	C78.767899,169.330978 78.767899,189.541885 78.767899,210.026993 
	C81.374130,210.289566 83.663223,210.520187 86.876030,210.950470 
z"/>
<path fill="#366580" opacity="1.000000" stroke="none" 
	d="
M86.002640,46.993683 
	C100.424171,48.078876 114.856888,49.034336 129.264999,50.275352 
	C162.767944,53.161057 196.259232,56.182350 229.754242,59.159893 
	C231.056686,59.275681 232.348892,59.506954 233.921753,59.722168 
	C233.921753,108.628899 233.921753,157.352005 233.921753,206.532684 
	C229.490204,206.532684 225.096344,206.532684 219.926880,206.532684 
	C219.926880,178.711121 219.926880,150.834824 219.926880,122.460632 
	C204.971695,121.868744 190.761902,121.306358 176.084549,120.725464 
	C176.084549,150.152023 176.084549,179.023666 176.084549,208.390076 
	C146.062592,209.251740 116.469315,210.101105 86.425545,210.398544 
	C85.984253,155.562302 85.993446,101.277992 86.002640,46.993683 
M128.284348,115.498344 
	C128.284348,121.264626 128.284348,127.030907 128.284348,133.384186 
	C137.722214,133.384186 146.584869,133.384186 155.549210,133.384186 
	C155.549210,117.751328 155.549210,102.219910 155.549210,86.236656 
	C146.519623,85.688187 137.810516,85.159180 128.297272,84.581322 
	C128.297272,94.953941 128.297272,104.726501 128.284348,115.498344 
M107.155350,92.625687 
	C107.071663,90.878609 106.987968,89.131531 106.892136,87.130905 
	C101.101227,87.130905 95.864990,87.130905 90.398064,87.130905 
	C90.398064,95.387238 90.398064,103.409111 90.398064,111.791885 
	C96.082962,111.791885 101.441895,111.791885 107.155350,111.791885 
	C107.155350,105.501015 107.155350,99.548317 107.155350,92.625687 
M108.032051,165.390137 
	C108.032051,159.321869 108.032051,153.253586 108.032051,147.183594 
	C101.881226,147.183594 96.493195,147.183594 91.074318,147.183594 
	C91.074318,155.531937 91.074318,163.540207 91.074318,171.578247 
	C96.855927,171.578247 102.234695,171.578247 108.032135,171.578247 
	C108.032135,169.608658 108.032135,167.981567 108.032051,165.390137 
M107.156364,70.493362 
	C107.156364,66.264259 107.156364,62.035156 107.156364,57.334473 
	C101.068497,57.334473 95.732719,57.334473 90.469513,57.334473 
	C90.469513,65.303482 90.469513,72.987701 90.469513,80.940872 
	C96.101631,80.940872 101.336121,80.940872 107.156456,80.940872 
	C107.156456,77.679077 107.156456,74.579865 107.156364,70.493362 
M191.124939,65.473503 
	C185.680313,64.824471 180.235672,64.175430 174.541382,63.496632 
	C174.541382,71.293556 174.541382,78.017159 174.541382,85.317703 
	C180.121307,85.587433 185.486633,85.846779 191.379883,86.131645 
	C191.379883,79.149651 191.379883,72.723709 191.124939,65.473503 
z"/>
<path fill="#07506B" opacity="1.000000" stroke="none" 
	d="
M85.639442,46.996609 
	C85.993446,101.277992 85.984253,155.562302 85.963692,210.298706 
	C83.663223,210.520187 81.374130,210.289566 78.767899,210.026993 
	C78.767899,189.541885 78.767899,169.330978 78.767899,148.450302 
	C71.352722,150.388733 64.274071,152.077637 57.342438,154.238205 
	C56.383617,154.537079 55.672554,157.164551 55.658520,158.721329 
	C55.530975,172.868912 55.583775,187.018112 55.583817,201.166840 
	C55.583820,202.789230 55.583817,204.411621 55.583817,206.652924 
	C45.063812,205.170334 35.108383,203.767303 24.870188,202.324417 
	C24.870188,200.255569 24.870188,198.609070 24.870188,196.962555 
	C24.870184,159.510056 24.921831,122.057365 24.787207,84.605339 
	C24.774290,81.011902 25.697741,78.979126 29.004450,77.235100 
	C47.838295,67.301781 66.533745,57.106056 85.639442,46.996609 
M31.021315,109.499596 
	C31.021315,116.042725 31.021315,122.585846 31.021315,129.830185 
	C37.232613,127.563400 42.483936,125.533592 47.817879,123.751022 
	C50.265583,122.933022 51.081829,121.617264 51.042274,119.032196 
	C50.835850,105.542305 50.833279,92.049393 50.710812,78.557968 
	C50.698475,77.198982 50.357574,75.842964 50.098946,73.979797 
	C43.995544,77.223419 38.474819,79.956108 33.207130,83.111252 
	C32.024517,83.819580 31.165495,85.987595 31.117729,87.513672 
	C30.898954,94.503220 31.021402,101.503448 31.021315,109.499596 
M77.945312,62.277061 
	C77.353722,61.954525 76.558479,61.203030 76.200684,61.372910 
	C69.307762,64.645561 62.446438,67.987442 55.643204,71.442261 
	C54.933949,71.802437 54.235893,72.949356 54.206913,73.755486 
	C54.061417,77.802338 54.140205,81.857254 54.140205,86.661942 
	C58.727997,84.613983 62.332317,82.407120 66.246384,81.375816 
	C75.954376,78.817871 80.157669,73.134430 77.945312,62.277061 
M41.086800,132.860947 
	C37.189018,131.489380 31.159212,133.804565 31.070068,136.895538 
	C30.898411,142.847702 31.020029,148.808319 31.020029,155.305542 
	C34.726704,154.346954 37.854904,153.537949 41.138432,152.688782 
	C41.138432,146.086060 41.138432,139.939056 41.086800,132.860947 
M57.888805,148.446106 
	C60.031471,147.127655 64.118416,148.622162 64.179764,144.318726 
	C64.274223,137.692596 64.204620,131.064133 64.204620,123.615105 
	C60.796593,126.010567 55.434433,123.887428 55.092098,129.475632 
	C54.747108,135.107285 54.937691,140.778976 55.108604,146.426605 
	C55.132160,147.204849 56.393291,147.945648 57.888805,148.446106 
M42.423161,172.214874 
	C45.294319,171.846375 48.165478,171.477890 50.969200,171.118042 
	C50.969200,165.655960 50.969200,160.905075 50.969200,156.129929 
	C41.947002,157.077484 41.942738,157.077484 41.950222,165.375137 
	C41.952019,167.365372 41.992477,169.355576 42.423161,172.214874 
M77.675507,119.459518 
	C76.988266,119.869499 75.708298,120.270187 75.701706,120.690842 
	C75.581322,128.370743 75.613785,136.053024 75.613785,144.226883 
	C79.076347,141.804184 79.862022,132.559448 77.675507,119.459518 
z"/>
<path fill="#F9FAFB" opacity="1.000000" stroke="none" 
	d="
M128.290802,114.998703 
	C128.297272,104.726501 128.297272,94.953941 128.297272,84.581322 
	C137.810516,85.159180 146.519623,85.688187 155.549210,86.236656 
	C155.549210,102.219910 155.549210,117.751328 155.549210,133.384186 
	C146.584869,133.384186 137.722214,133.384186 128.284348,133.384186 
	C128.284348,127.030907 128.284348,121.264626 128.290802,114.998703 
z"/>
<path fill="#F9FAFB" opacity="1.000000" stroke="none" 
	d="
M107.155350,93.110657 
	C107.155350,99.548317 107.155350,105.501015 107.155350,111.791885 
	C101.441895,111.791885 96.082962,111.791885 90.398064,111.791885 
	C90.398064,103.409111 90.398064,95.387238 90.398064,87.130905 
	C95.864990,87.130905 101.101227,87.130905 106.892136,87.130905 
	C106.987968,89.131531 107.071663,90.878609 107.155350,93.110657 
z"/>
<path fill="#FAFBFC" opacity="1.000000" stroke="none" 
	d="
M108.032089,165.872314 
	C108.032135,167.981567 108.032135,169.608658 108.032135,171.578247 
	C102.234695,171.578247 96.855927,171.578247 91.074318,171.578247 
	C91.074318,163.540207 91.074318,155.531937 91.074318,147.183594 
	C96.493195,147.183594 101.881226,147.183594 108.032051,147.183594 
	C108.032051,153.253586 108.032051,159.321869 108.032089,165.872314 
z"/>
<path fill="#F9FAFB" opacity="1.000000" stroke="none" 
	d="
M107.156410,70.987007 
	C107.156456,74.579865 107.156456,77.679077 107.156456,80.940872 
	C101.336121,80.940872 96.101631,80.940872 90.469513,80.940872 
	C90.469513,72.987701 90.469513,65.303482 90.469513,57.334473 
	C95.732719,57.334473 101.068497,57.334473 107.156364,57.334473 
	C107.156364,62.035156 107.156364,66.264259 107.156410,70.987007 
z"/>
<path fill="#F6F8FA" opacity="1.000000" stroke="none" 
	d="
M191.252411,65.885635 
	C191.379883,72.723709 191.379883,79.149651 191.379883,86.131645 
	C185.486633,85.846779 180.121307,85.587433 174.541382,85.317703 
	C174.541382,78.017159 174.541382,71.293556 174.541382,63.496632 
	C180.235672,64.175430 185.680313,64.824471 191.252411,65.885635 
z"/>
<path fill="#F7F9FA" opacity="1.000000" stroke="none" 
	d="
M31.021317,108.999718 
	C31.021402,101.503448 30.898954,94.503220 31.117729,87.513672 
	C31.165495,85.987595 32.024517,83.819580 33.207130,83.111252 
	C38.474819,79.956108 43.995544,77.223419 50.098946,73.979797 
	C50.357574,75.842964 50.698475,77.198982 50.710812,78.557968 
	C50.833279,92.049393 50.835850,105.542305 51.042274,119.032196 
	C51.081829,121.617264 50.265583,122.933022 47.817879,123.751022 
	C42.483936,125.533592 37.232613,127.563400 31.021315,129.830185 
	C31.021315,122.585846 31.021315,116.042725 31.021317,108.999718 
z"/>
<path fill="#F5F7F9" opacity="1.000000" stroke="none" 
	d="
M77.963867,62.705853 
	C80.157669,73.134430 75.954376,78.817871 66.246384,81.375816 
	C62.332317,82.407120 58.727997,84.613983 54.140205,86.661942 
	C54.140205,81.857254 54.061417,77.802338 54.206913,73.755486 
	C54.235893,72.949356 54.933949,71.802437 55.643204,71.442261 
	C62.446438,67.987442 69.307762,64.645561 76.200684,61.372910 
	C76.558479,61.203030 77.353722,61.954525 77.963867,62.705853 
z"/>
<path fill="#F5F7F9" opacity="1.000000" stroke="none" 
	d="
M41.112617,133.326508 
	C41.138432,139.939056 41.138432,146.086060 41.138432,152.688782 
	C37.854904,153.537949 34.726704,154.346954 31.020029,155.305542 
	C31.020029,148.808319 30.898411,142.847702 31.070068,136.895538 
	C31.159212,133.804565 37.189018,131.489380 41.112617,133.326508 
z"/>
<path fill="#F5F7F9" opacity="1.000000" stroke="none" 
	d="
M57.485138,148.574951 
	C56.393291,147.945648 55.132160,147.204849 55.108604,146.426605 
	C54.937691,140.778976 54.747108,135.107285 55.092098,129.475632 
	C55.434433,123.887428 60.796593,126.010567 64.204620,123.615105 
	C64.204620,131.064133 64.274223,137.692596 64.179764,144.318726 
	C64.118416,148.622162 60.031471,147.127655 57.485138,148.574951 
z"/>
<path fill="#F6F8F9" opacity="1.000000" stroke="none" 
	d="
M42.219158,171.780334 
	C41.992477,169.355576 41.952019,167.365372 41.950222,165.375137 
	C41.942738,157.077484 41.947002,157.077484 50.969200,156.129929 
	C50.969200,160.905075 50.969200,165.655960 50.969200,171.118042 
	C48.165478,171.477890 45.294319,171.846375 42.219158,171.780334 
z"/>
<path fill="#D7E1E7" opacity="1.000000" stroke="none" 
	d="
M78.035553,119.623825 
	C79.862022,132.559448 79.076347,141.804184 75.613785,144.226883 
	C75.613785,136.053024 75.581322,128.370743 75.701706,120.690842 
	C75.708298,120.270187 76.988266,119.869499 78.035553,119.623825 
z"/>
</svg>